# xmcd CD database file
#
# Track frame offsets:
#	150
#	17965
#	37827
#	55222
#	77139
#	93354
#	111383
#	126853
#	142298
#	160778
#	177053
#	193333
#	210886
#	232229
#	251732
#	270744
#	286742
#	302699
#	320173
#
# Disc length: 4487 seconds
#
# Revision: 0
# Processed by: cddbd v1.5.2PL0 Copyright (c) Steve Scherf et al.
# Submitted via: CDex 1.70beta2
#
DISCID=17118513
DTITLE=Shania Twain - Greatest Hits (Chinese Edition-CD2)
DYEAR=2005
DGENRE=Country
TTITLE0=I Ain't Goin' Down
TTITLE1=Ain't No Particular Way
TTITLE2=Whatever You Do Don't
TTITLE3=Black Eyes Blue Tears
TTITLE4=What a Way To Wanna Be
TTITLE5=Thank You Baby For Makin' Someday Come So Soon
TTITLE6=I'm Holdin On To Love
TTITLE7=I'm Not In Yhe Mood
TTITLE8=I Won't Leave You Lonely
TTITLE9=From This Moment On
TTITLE10=When
TTITLE11=God Bless The Child
TTITLE12=Don't Be Stupid [Extended Dance Mix]
TTITLE13=Rock This Country
TTITLE14=If You Wanna Touch Her Ask
TTITLE15=Honey I'm Home
TTITLE16=Love Gets Me Every Time
TTITLE17=Man I Feel Like A Woman
TTITLE18=That Don't Impress Me Much
EXTD=YEAR: 2005
EXTT0=
EXTT1=
EXTT2=
EXTT3=
EXTT4=
EXTT5=
EXTT6=
EXTT7=
EXTT8=
EXTT9=
EXTT10=
EXTT11=
EXTT12=
EXTT13=
EXTT14=
EXTT15=
EXTT16=
EXTT17=
EXTT18=
PLAYORDER=
